<?xml version="1.0" encoding="UTF-8" standalone="no"?>
<!DOCTYPE svg PUBLIC "-//W3C//DTD SVG 1.1//EN" "http://www.w3.org/Graphics/SVG/1.1/DTD/svg11.dtd">
<svg width="100%" height="100%" viewBox="0 0 152 152" version="1.1" xmlns="http://www.w3.org/2000/svg" xmlns:xlink="http://www.w3.org/1999/xlink" xml:space="preserve" xmlns:serif="http://www.serif.com/" style="fill-rule:evenodd;clip-rule:evenodd;stroke-linejoin:round;stroke-miterlimit:2;">
    <g transform="matrix(1,0,0,1,-251,-1)">
        <g id="univeral-fire-logo" transform="matrix(1,0,0,1,-0.994157,-0.589938)">
            <rect x="251.994" y="1.59" width="151.997" height="151.997" style="fill:none;"/>
            <g transform="matrix(1.26809,0,0,1.1803,-88.515,-14.4349)">
                <g transform="matrix(0.788588,0,0,0.847242,69.8018,12.2299)">
                    <g transform="matrix(0.952498,0,0,0.952498,16.2742,5.46422)">
                        <rect x="301.98" y="58.28" width="53.195" height="41.582" style="fill:white;"/>
                    </g>
                    <g transform="matrix(0.825449,0,0,1.13833,58.261,-5.36608)">
                        <rect x="301.98" y="58.28" width="53.195" height="41.582" style="fill:white;"/>
                    </g>
                </g>
                <g transform="matrix(1.02124,0,0,1.01449,277.322,-936.999)">
                    <path d="M67.544,954.362C65.895,956.746 64.405,959.899 63.788,962.848C63.419,964.617 64.272,966.488 65.652,966.962C67.722,967.673 68.779,966.16 69.149,964.391C69.704,961.737 66.434,959.67 67.544,954.362ZM50.487,957.591C51.701,958.258 53.058,959.594 54.357,961.762C55.925,964.378 57.412,967.79 58.743,971.162C60.815,975.69 61.81,980.786 64.333,984.705C65.206,985.705 65.826,985.362 66.454,984.619L67.114,978.59L69.407,981.448C70.726,982.336 71.562,980.793 72.016,979.79C72.411,978.586 72.588,977.453 72.704,976.333C74.707,979.702 76.47,984.344 77.75,989.105C79.333,994.995 80.215,1001.02 80.215,1004.65C80.215,1012.73 76.956,1019.06 71.672,1023.45C66.388,1027.83 59.038,1030.25 50.859,1030.25C42.68,1030.25 35.331,1027.83 30.047,1023.45C24.762,1019.06 21.504,1012.73 21.504,1004.65C21.504,997.719 25.778,986.049 31.308,977.648C31.877,979.647 32.569,982.076 32.569,982.076C32.746,982.593 33.449,982.847 33.917,982.562L37.529,980.419L38.991,984.819C39.194,985.403 40.074,985.602 40.51,985.162C43.915,980.286 45.576,974.484 47.247,969.105C48.428,965.297 49.493,961.452 50.487,957.591L50.487,957.591ZM36.841,962.762C37.95,968.07 34.681,970.137 35.235,972.791C35.605,974.56 36.662,976.102 38.733,975.391C40.113,974.917 40.966,973.046 40.596,971.276C39.98,968.328 38.49,965.146 36.841,962.762ZM81.448,974.648C82.187,978.439 79.988,979.924 80.358,981.819C80.605,983.083 81.329,984.156 82.709,983.648C83.629,983.309 84.188,981.997 83.942,980.734C83.531,978.627 82.547,976.351 81.448,974.648ZM18.666,978.305C17.566,980.008 16.582,982.284 16.171,984.391C15.925,985.654 16.484,986.966 17.404,987.305C18.785,987.813 19.48,986.74 19.726,985.476C20.096,983.581 17.926,982.096 18.666,978.305ZM49.053,988.905C47.956,992.994 47.216,996.537 45.269,1000.25C44.674,1001.37 44.057,1001.95 43.52,1002.39C42.202,1000.99 40.867,999.728 39.851,998.106C39.761,997.479 38.895,997.123 38.389,997.506C34.348,1000.53 31.595,1007.16 31.595,1014.71C31.595,1016.34 32.456,1017.81 33.716,1019.02C34.976,1020.23 36.658,1021.23 38.561,1022.08C42.366,1023.76 47.028,1024.76 50.859,1024.76C54.69,1024.76 59.352,1023.76 63.158,1022.08C65.06,1021.23 66.743,1020.23 68.002,1019.02C69.262,1017.81 70.124,1016.34 70.124,1014.71C70.124,1007.08 66.328,1000.1 64.448,997.677C64.002,997.058 62.801,997.43 62.785,998.191C62.587,1000.2 62.05,1002.49 60.348,1003.42C59.294,1001.2 58.228,998.713 57.252,996.734C55.511,993.691 53.53,988.949 50.143,988.191C49.581,988.086 49.337,988.561 49.053,988.905ZM26.521,1022.65C27.254,1023.43 28.042,1024.16 28.871,1024.85C30.905,1026.54 33.21,1027.94 35.723,1029.05L28.814,1036.36C29.043,1033.62 27.711,1030.85 25.173,1029.39C23.887,1028.65 22.458,1028.37 21.074,1028.45L26.521,1022.65ZM74.051,1023.79L78.409,1028.45C77.024,1028.37 75.596,1028.65 74.309,1029.39C71.772,1030.85 70.439,1033.62 70.669,1036.36L64.39,1029.7C67.532,1028.51 70.388,1026.89 72.847,1024.85C73.259,1024.51 73.663,1024.16 74.051,1023.79ZM37.902,1029.9C41.265,1031.11 44.933,1031.83 48.795,1032.02L46.502,1041.79C45.329,1039.3 42.785,1037.56 39.851,1037.56C38.358,1037.56 36.97,1038.02 35.809,1038.79L37.902,1029.9ZM21.131,1030.25C22.188,1030.17 23.265,1030.42 24.256,1030.99C26.898,1032.51 27.788,1035.84 26.262,1038.48C24.737,1041.11 21.394,1042 18.752,1040.48C16.11,1038.96 15.219,1035.62 16.745,1032.99C17.698,1031.35 19.37,1030.37 21.131,1030.25ZM77.836,1030.25C79.787,1030.19 81.689,1031.18 82.738,1032.99C84.263,1035.62 83.373,1038.96 80.731,1040.48C78.089,1042 74.745,1041.11 73.22,1038.48C71.695,1035.84 72.585,1032.51 75.227,1030.99C76.052,1030.52 76.949,1030.27 77.836,1030.25ZM61.982,1030.51L63.932,1038.79C62.771,1038.02 61.383,1037.56 59.89,1037.56C56.955,1037.56 54.412,1039.3 53.239,1041.79L50.945,1032.08C54.825,1032.07 58.546,1031.52 61.982,1030.51ZM39.851,1039.39C42.902,1039.39 45.355,1041.84 45.355,1044.88C45.355,1047.92 42.902,1050.36 39.851,1050.36C36.8,1050.36 34.347,1047.92 34.347,1044.88C34.347,1041.84 36.8,1039.39 39.851,1039.39ZM59.89,1039.39C62.94,1039.39 65.394,1041.84 65.394,1044.88C65.394,1047.92 62.94,1050.36 59.89,1050.36C56.839,1050.36 54.385,1047.92 54.385,1044.88C54.385,1041.84 56.839,1039.39 59.89,1039.39Z" style="fill:rgb(39,29,0);fill-rule:nonzero;"/>
                </g>
                <g transform="matrix(1,0,0,1,278.49,-922.203)">
                    <path d="M67.544,954.362C65.895,956.746 64.405,959.899 63.788,962.848C63.419,964.617 64.272,966.488 65.652,966.962C67.722,967.673 68.779,966.16 69.149,964.391C69.704,961.737 66.434,959.67 67.544,954.362ZM50.487,957.591C51.701,958.258 53.058,959.594 54.357,961.762C55.925,964.378 57.412,967.79 58.743,971.162C60.815,975.69 61.81,980.786 64.333,984.705C65.206,985.705 65.826,985.362 66.454,984.619L67.114,978.59L69.407,981.448C70.726,982.336 71.562,980.793 72.016,979.79C72.411,978.586 72.588,977.453 72.704,976.333C74.707,979.702 76.47,984.344 77.75,989.105C79.333,994.995 80.215,1001.02 80.215,1004.65C80.215,1012.73 76.956,1019.06 71.672,1023.45C66.388,1027.83 59.038,1030.25 50.859,1030.25C42.68,1030.25 35.331,1027.83 30.047,1023.45C24.762,1019.06 21.504,1012.73 21.504,1004.65C21.504,997.719 25.778,986.049 31.308,977.648C31.877,979.647 32.569,982.076 32.569,982.076C32.746,982.593 33.449,982.847 33.917,982.562L37.529,980.419L38.991,984.819C39.194,985.403 40.074,985.602 40.51,985.162C43.915,980.286 45.576,974.484 47.247,969.105C48.428,965.297 49.493,961.452 50.487,957.591L50.487,957.591ZM36.841,962.762C37.95,968.07 34.681,970.137 35.235,972.791C35.605,974.56 36.662,976.102 38.733,975.391C40.113,974.917 40.966,973.046 40.596,971.276C39.98,968.328 38.49,965.146 36.841,962.762ZM81.448,974.648C82.187,978.439 79.988,979.924 80.358,981.819C80.605,983.083 81.329,984.156 82.709,983.648C83.629,983.309 84.188,981.997 83.942,980.734C83.531,978.627 82.547,976.351 81.448,974.648ZM18.666,978.305C17.566,980.008 16.582,982.284 16.171,984.391C15.925,985.654 16.484,986.966 17.404,987.305C18.785,987.813 19.48,986.74 19.726,985.476C20.096,983.581 17.926,982.096 18.666,978.305ZM49.053,988.905C47.956,992.994 47.216,996.537 45.269,1000.25C44.674,1001.37 44.057,1001.95 43.52,1002.39C42.202,1000.99 40.867,999.728 39.851,998.106C39.761,997.479 38.895,997.123 38.389,997.506C34.348,1000.53 31.595,1007.16 31.595,1014.71C31.595,1016.34 32.456,1017.81 33.716,1019.02C34.976,1020.23 36.658,1021.23 38.561,1022.08C42.366,1023.76 47.028,1024.76 50.859,1024.76C54.69,1024.76 59.352,1023.76 63.158,1022.08C65.06,1021.23 66.743,1020.23 68.002,1019.02C69.262,1017.81 70.124,1016.34 70.124,1014.71C70.124,1007.08 66.328,1000.1 64.448,997.677C64.002,997.058 62.801,997.43 62.785,998.191C62.587,1000.2 62.05,1002.49 60.348,1003.42C59.294,1001.2 58.228,998.713 57.252,996.734C55.511,993.691 53.53,988.949 50.143,988.191C49.581,988.086 49.337,988.561 49.053,988.905ZM26.521,1022.65C27.254,1023.43 28.042,1024.16 28.871,1024.85C30.905,1026.54 33.21,1027.94 35.723,1029.05L28.814,1036.36C29.043,1033.62 27.711,1030.85 25.173,1029.39C23.887,1028.65 22.458,1028.37 21.074,1028.45L26.521,1022.65ZM74.051,1023.79L78.409,1028.45C77.024,1028.37 75.596,1028.65 74.309,1029.39C71.772,1030.85 70.439,1033.62 70.669,1036.36L64.39,1029.7C67.532,1028.51 70.388,1026.89 72.847,1024.85C73.259,1024.51 73.663,1024.16 74.051,1023.79ZM37.902,1029.9C41.265,1031.11 44.933,1031.83 48.795,1032.02L46.502,1041.79C45.329,1039.3 42.785,1037.56 39.851,1037.56C38.358,1037.56 36.97,1038.02 35.809,1038.79L37.902,1029.9ZM21.131,1030.25C22.188,1030.17 23.265,1030.42 24.256,1030.99C26.898,1032.51 27.788,1035.84 26.262,1038.48C24.737,1041.11 21.394,1042 18.752,1040.48C16.11,1038.96 15.219,1035.62 16.745,1032.99C17.698,1031.35 19.37,1030.37 21.131,1030.25ZM77.836,1030.25C79.787,1030.19 81.689,1031.18 82.738,1032.99C84.263,1035.62 83.373,1038.96 80.731,1040.48C78.089,1042 74.745,1041.11 73.22,1038.48C71.695,1035.84 72.585,1032.51 75.227,1030.99C76.052,1030.52 76.949,1030.27 77.836,1030.25ZM61.982,1030.51L63.932,1038.79C62.771,1038.02 61.383,1037.56 59.89,1037.56C56.955,1037.56 54.412,1039.3 53.239,1041.79L50.945,1032.08C54.825,1032.07 58.546,1031.52 61.982,1030.51ZM39.851,1039.39C42.902,1039.39 45.355,1041.84 45.355,1044.88C45.355,1047.92 42.902,1050.36 39.851,1050.36C36.8,1050.36 34.347,1047.92 34.347,1044.88C34.347,1041.84 36.8,1039.39 39.851,1039.39ZM59.89,1039.39C62.94,1039.39 65.394,1041.84 65.394,1044.88C65.394,1047.92 62.94,1050.36 59.89,1050.36C56.839,1050.36 54.385,1047.92 54.385,1044.88C54.385,1041.84 56.839,1039.39 59.89,1039.39Z" style="fill:rgb(255,203,46);fill-rule:nonzero;"/>
                </g>
            </g>
        </g>
    </g>
</svg>
